<svg width="38" height="45" viewBox="0 0 38 45" fill="none" xmlns="http://www.w3.org/2000/svg">
<g clip-path="url(#clip0_1412_548)">
<path d="M21.6148 44.881C28.439 44.881 32.6817 42.4428 32.6817 38.3101V28.9147C35.6489 26.3577 37.3846 22.2101 37.3846 17.6462C37.3846 7.06145 30.5158 0 20.25 0C10.0434 0 3.2044 6.91278 3.2044 17.2448C3.2044 17.8691 3.21923 18.3746 3.27856 18.8652L0.934614 23.1169C0.296703 24.2319 0 25.3022 0 26.3131C0 28.2309 1.20165 29.8215 3.23405 30.2824V33.9691C3.23405 37.225 5.47418 38.8752 8.48571 38.5628L12.506 38.1317L10.6516 36.0803V38.3101C10.6516 42.4133 14.8351 44.881 21.6148 44.881ZM21.6148 42.2498C16.3928 42.2498 13.1736 40.54 13.1736 37.8492V35.7533C13.1736 35.4856 13.0253 35.3815 12.7879 35.3964L8.14448 35.9317C6.69066 36.0803 5.85988 35.3964 5.85988 33.7612V28.3349C5.85988 28.1565 5.74121 28.0376 5.51869 28.0376H4.80658C3.47143 28.0376 2.67033 27.3538 2.67033 26.2537C2.67033 25.7334 2.86318 25.0644 3.21923 24.4251L6.00824 19.4004C5.88956 18.6571 5.83023 17.9286 5.83023 17.2002C5.83023 8.47371 11.6011 2.63131 20.25 2.63131C28.9434 2.63131 34.7587 8.62238 34.7587 17.6462C34.7587 21.9128 32.9934 25.6739 30.0412 27.6214V37.8492C30.0412 40.54 26.8219 42.2498 21.6148 42.2498Z" fill="#DD0000"/>
<path d="M13.782 19.8166C16.126 19.8166 17.7726 18.3151 17.7726 16.2041C17.7726 15.4608 17.5204 14.8067 17.0902 14.3756C16.8084 14.108 16.7045 13.8255 16.7045 13.6174C16.7045 13.2011 17.0605 12.8741 17.5056 12.8741C17.6836 12.8741 17.9358 12.9187 18.1287 13.1119C18.3215 13.2606 18.4699 13.6025 18.5292 13.7958C20.0276 13.5282 20.7694 12.6214 20.7694 11.1347C20.7694 10.7036 21.1105 10.3319 21.5408 10.3319C21.971 10.3319 22.3567 10.7185 22.3567 11.1347C22.3567 13.3052 21.2886 14.6729 19.2265 15.1783C19.3303 15.5054 19.36 15.877 19.36 16.2338C19.36 18.1218 18.3809 19.6233 16.7935 20.441C17.7133 20.9761 18.8111 21.2735 20.0127 21.2735C20.4875 21.2735 21.0364 21.214 21.5556 21.1248C21.4369 20.8126 21.3924 20.5004 21.3924 20.1882C21.3924 15.3716 28.6765 14.4945 28.6765 10.0941C28.6765 7.9385 26.9853 6.2735 24.8638 6.2735C24.1369 6.2735 23.8699 6.30322 23.6028 6.36268C22.8463 5.42613 21.6891 4.86121 20.5765 4.86121C18.6182 4.86121 17.2089 6.03563 17.1644 7.92364C17.1644 8.39936 16.838 8.72641 16.3633 8.72641C15.8737 8.72641 15.5474 8.35475 15.577 7.87904C15.5919 7.07627 15.8292 6.46674 16.0666 5.94642C15.7402 5.8721 15.399 5.84239 15.0578 5.84239C12.7732 5.84239 11.0227 7.31411 11.0227 9.21698C11.0227 10.4806 11.9276 11.4023 13.1144 11.4023C13.5891 11.4023 13.9452 11.7591 13.9452 12.2051C13.9452 12.6362 13.5743 13.0079 13.1144 13.0079C11.5271 13.0079 10.2809 12.22 9.76166 11.0009C9.06442 11.9524 8.67871 13.1268 8.67871 14.3161C8.67871 17.438 10.7259 19.8166 13.782 19.8166ZM28.2314 25.1981C30.2342 25.1981 31.6139 22.8493 31.6139 19.4449C31.6139 19.1476 31.6139 18.8354 31.599 18.5232C30.8571 18.88 29.9671 19.0435 28.9583 18.9989C28.5281 18.9544 28.1869 18.6124 28.1869 18.1813C28.1869 17.7502 28.5578 17.3636 28.988 17.3934C31.139 17.4975 32.5634 16.2933 32.5634 14.3607C32.5634 12.5768 31.6434 11.105 30.1452 10.3468C29.7001 15.6243 22.8166 16.3379 22.8166 20.1436C22.8166 21.3329 23.6622 22.1654 25.027 22.1654H25.3979C25.6798 23.9791 26.7924 25.1981 28.2314 25.1981Z" fill="#DD0000"/>
</g>
<defs>
<clipPath id="clip0_1412_548">
<rect width="37.3846" height="45" fill="white"/>
</clipPath>
</defs>
</svg>
