<svg width="44" height="44" viewBox="0 0 44 44" fill="none" xmlns="http://www.w3.org/2000/svg">
<path d="M36.4004 21.9288C36.4004 22.7661 37.0797 23.4297 37.9013 23.4297L42.4987 23.4297C43.3203 23.4297 43.9996 22.7661 43.9996 21.9288C43.9996 21.1072 43.3203 20.4437 42.4987 20.4437L37.9013 20.4437C37.0797 20.4437 36.4004 21.1072 36.4004 21.9288ZM32.1663 32.0874C31.5975 32.6721 31.566 33.6198 32.1663 34.2204L35.4209 37.4747C36.0054 38.0594 36.9692 38.0435 37.5537 37.4747C38.1225 36.8904 38.1383 35.9423 37.5537 35.3577L34.2833 32.0874C33.6988 31.5029 32.7509 31.5187 32.1663 32.0874ZM22.0076 36.2898C21.1861 36.2898 20.5226 36.9693 20.5226 37.7908L20.5226 42.3724C20.5226 43.194 21.1861 43.8734 22.0076 43.8734C22.8292 43.8734 23.5085 43.194 23.5085 42.3724L23.5085 37.7908C23.5085 36.9693 22.8292 36.2898 22.0076 36.2898ZM11.849 32.0874C11.2644 31.5187 10.3009 31.5029 9.73203 32.0874L6.46149 35.3577C5.87714 35.9423 5.90852 36.8904 6.47734 37.4747C7.06201 38.0435 8.01005 38.0594 8.57854 37.4747L11.849 34.2045C12.4178 33.6198 12.4178 32.6721 11.849 32.0874ZM7.61498 21.9288C7.61498 21.1072 6.95136 20.4437 6.12984 20.4437L1.53237 20.4437C0.695001 20.4437 0.0313786 21.1072 0.0313786 21.9288C0.0313786 22.7661 0.695001 23.4297 1.53237 23.4297L6.12984 23.4297C6.95136 23.4297 7.61498 22.7661 7.61498 21.9288ZM11.849 11.7859C12.4178 11.2014 12.4178 10.2376 11.849 9.65309L8.5944 6.39853C8.02558 5.81398 7.07787 5.82977 6.4932 6.38274C5.92438 6.96728 5.89299 7.93101 6.47734 8.49976L9.73203 11.7701C10.3009 12.3389 11.2644 12.3389 11.849 11.7859ZM22.0076 7.56765C22.8292 7.56765 23.5085 6.90409 23.5085 6.08254L23.5085 1.50089C23.5085 0.679351 22.8292 9.97896e-07 22.0076 9.61984e-07C21.1861 9.26075e-07 20.5226 0.679351 20.5226 1.50089L20.5226 6.08254C20.5226 6.90409 21.1861 7.56765 22.0076 7.56765ZM32.1663 11.7701C32.7351 12.3389 33.7146 12.3389 34.2833 11.7859L37.5537 8.51558C38.1067 7.96262 38.1225 6.9989 37.5537 6.41432C36.9692 5.84557 36.0054 5.82978 35.4367 6.39853L32.1663 9.65309C31.5818 10.2376 31.5975 11.1856 32.1663 11.7701Z" fill="url(#paint0_linear_2653_2435)"/>
<path d="M11.8482 21.9121C11.8482 27.5207 16.3982 32.0865 22.0068 32.0865C27.6154 32.0865 32.1813 27.5207 32.1813 21.9121C32.1813 16.3035 27.6154 11.7534 22.0068 11.7534C16.3982 11.7534 11.8482 16.3035 11.8482 21.9121Z" fill="url(#paint1_linear_2653_2435)"/>
<defs>
<linearGradient id="paint0_linear_2653_2435" x1="22.0155" y1="43.8734" x2="22.0155" y2="9.62328e-07" gradientUnits="userSpaceOnUse">
<stop stop-color="#EF9744"/>
<stop offset="1" stop-color="#FFC70A"/>
</linearGradient>
<linearGradient id="paint1_linear_2653_2435" x1="22.0147" y1="32.0865" x2="22.0147" y2="11.7534" gradientUnits="userSpaceOnUse">
<stop stop-color="#EF9744"/>
<stop offset="1" stop-color="#FFC70A"/>
</linearGradient>
</defs>
</svg>
